<svg xmlns="http://www.w3.org/2000/svg" viewBox="0 0 480 120" width="480" height="120">
  <defs>
    <linearGradient id="spec" x1="0%" y1="0%" x2="100%" y2="0%">
      <stop offset="0%" stop-color="#818CF8"/>
      <stop offset="40%" stop-color="#34D399"/>
      <stop offset="100%" stop-color="#FBBF24"/>
    </linearGradient>
  </defs>

  <!-- Wordmark (rendered first so curve draws on top) -->
  <text x="80" y="78" font-family="'Inter', 'Helvetica Neue', Arial, sans-serif"
        font-size="44" font-weight="600" fill="#E2E8F0" letter-spacing="-1.5">
    open<tspan font-weight="800" fill="url(#spec)">spec</tspan>lib
  </text>

  <!--
    Bastnaesite ((Ce,La)CO3F) reflectance, 0.35-2.5 um.
    High-resolution trace of Nd3+/Pr3+ crystal-field absorptions
    in the VNIR (~0.52, 0.58, 0.68, 0.74, 0.80, 0.87 um),
    OH overtone at 1.4 um, H2O at 1.9 um, carbonate at 2.3 um.
    VNIR region (0.35-1.5 um) stretched for visual clarity.
  -->
  <path d="M 6 88
           C 7 86, 8 83, 10 81
           C 12 76, 13 72, 14 68
           C 15.5 63, 17 58, 19 55
           C 20 53, 21 51, 22 49
           C 23 47, 23.5 46, 24 46
           C 24.5 47, 25 50, 25.5 53
           C 26 57, 26.3 58, 26.5 57
           C 27 55, 27.5 51, 28 47
           C 28.5 45, 29 44, 30 43
           C 31 42, 31.5 41, 32 40
           C 32.5 39.5, 33 40, 33.5 42
           C 34 45, 34.3 48, 34.5 50
           C 34.8 48, 35 44, 35.5 40
           C 36 37, 37 36, 38 35
           C 39 34, 40 34, 41 33
           C 42 33, 42.5 34, 43 36
           C 43.5 38, 44 42, 44.5 44
           C 45 42, 45.5 38, 46 35
           C 46.5 33, 47 32, 48 31
           C 49 30, 49.5 31, 50 33
           C 50.5 35, 51 38, 51.3 40
           C 51.6 44, 51.8 48, 52 52
           C 52.5 50, 53 44, 54 38
           C 54.5 34, 55 31, 56 29
           C 57 28, 57.5 28, 58 30
           C 58.5 32, 59 36, 59.5 39
           C 60 36, 60.5 32, 61 29
           C 61.5 27, 62 26, 63 26
           C 64 26, 64.5 27, 65 29
           C 65.5 31, 65.8 32, 66 31
           C 66.3 30, 66.5 27, 67 24
           C 67.5 21, 68 19, 68.5 17
           C 69 15, 69.5 14, 70 15
           C 70.5 17, 71 20, 71.5 24
           C 72 28, 72.3 30, 72.5 32
           C 72.8 34, 73 38, 73.5 42
           C 73.8 46, 74 50, 74.5 50
           C 75 47, 75.5 40, 76 34
           C 76.5 29, 77 26, 78 24
           C 79 22, 80 22, 81 23
           C 82 24, 83 25, 84 26
           C 85 24, 86 22, 87 21
           C 88 20, 90 19, 93 18
           C 96 17, 100 16, 105 15
           C 110 14, 117 13, 122 13
           C 126 14, 128 16, 130 20
           C 131 22, 132 24, 132.5 22
           C 133 19, 134 15, 136 13
           C 138 12, 140 12, 142 11
           C 143 11, 144 10, 145 10
           C 146 10, 147 11, 148 12
           C 149 14, 150 18, 151 22
           C 152 20, 153 15, 154 13
           C 155 11, 157 10, 159 11
           C 160 12, 161 13, 162 16
           C 163 24, 163.5 32, 164 42
           C 164.5 38, 165 30, 166 26
           C 167 23, 168 22, 170 24"
        fill="none" stroke="url(#spec)" stroke-width="2.5"
        stroke-linecap="round" stroke-linejoin="round"/>
</svg>
