<svg xmlns="http://www.w3.org/2000/svg" viewBox="0 0 32 32">
  <defs>
    <linearGradient id="g" x1="0%" y1="0%" x2="100%" y2="0%">
      <stop offset="0%" stop-color="#818CF8"/>
      <stop offset="40%" stop-color="#34D399"/>
      <stop offset="100%" stop-color="#FBBF24"/>
    </linearGradient>
  </defs>
  <rect width="32" height="32" rx="6" fill="#1E293B"/>
  <g transform="translate(0, 3.5)">
  <path d="M 3 22
    C 3.5 21, 4 19, 4.5 18
    C 5 16.5, 5.5 15, 6 14
    C 6.3 13, 6.5 12.5, 6.8 13
    C 7 14, 7.2 15, 7.3 14.5
    C 7.5 13.5, 7.8 12, 8.2 11
    C 8.5 10.5, 8.8 10.5, 9 11
    C 9.2 12, 9.3 13, 9.5 12
    C 9.7 10.5, 10 9, 10.5 8
    C 10.8 7.5, 11 7.5, 11.3 8
    C 11.5 9, 11.7 10, 11.8 9.5
    C 12 8, 12.3 6, 12.8 5
    C 13 4.5, 13.2 4.5, 13.5 5.5
    C 13.8 7, 14 9, 14.2 10
    C 14.4 9, 14.8 6, 15.3 5
    C 15.6 4, 16 4, 16.3 5
    C 16.5 6, 16.7 7, 16.8 6.5
    C 17 5.5, 17.3 4, 17.8 3.5
    C 18 3, 18.2 3, 18.5 4
    C 18.8 5.5, 19 7, 19.2 8.5
    C 19.5 7, 20 5, 20.5 4
    C 20.8 3.5, 21.2 3.5, 21.5 4.5
    C 21.8 5.5, 22 6.5, 22.5 7
    C 23 6, 23.5 5, 24 4.5
    C 24.5 4, 25.5 4, 26.5 4
    C 27.5 4, 28 5, 28.5 6
    C 29 7, 29 8, 29 8"
    fill="none" stroke="url(#g)" stroke-width="2"
    stroke-linecap="round" stroke-linejoin="round"/>
  </g>
</svg>
